<svg xmlns="http://www.w3.org/2000/svg" width="16" height="16" fill="none" stroke="#656d76" stroke-width="1.5" viewBox="0 0 24 24"><path stroke-linecap="round" stroke-linejoin="round" d="M13.19 8.688a4.5 4.5 0 0 1 1.242 7.244l-4.5 4.5a4.5 4.5 0 0 1-6.364-6.364l1.757-1.757m13.35-.622 1.757-1.757a4.5 4.5 0 0 0-6.364-6.364l-4.5 4.5a4.5 4.5 0 0 0 1.242 7.244"/><path stroke-linecap="round" stroke-linejoin="round" stroke-width="2" d="M17 7l3-3m0 0h-3.5m3.5 0v3.5"/><path stroke-linecap="round" stroke-linejoin="round" stroke-width="2" d="M7 17l-3 3m0 0h3.5m-3.5 0v-3.5"/><circle cx="12" cy="12" r="1.5" fill="#656d76" stroke="none"/></svg>
