<?xml version="1.0" encoding="UTF-8" standalone="no"?>
<!DOCTYPE svg PUBLIC "-//W3C//DTD SVG 1.1//EN" "http://www.w3.org/Graphics/SVG/1.1/DTD/svg11.dtd">
<svg width="100%" height="100%" viewBox="0 0 1200 1200" version="1.1" xmlns="http://www.w3.org/2000/svg" xmlns:xlink="http://www.w3.org/1999/xlink" xml:space="preserve" xmlns:serif="http://www.serif.com/" style="fill-rule:evenodd;clip-rule:evenodd;stroke-linejoin:round;stroke-miterlimit:2;">
  <!-- Mirrored content - flip horizontally -->
  <g transform="translate(1200, 0) scale(-1, 1)">
    <!-- Original M shape -->
    <path d="M248,200l51.642,0l214.359,800l-99.436,0l-207.994,-776.243c8.338,-14.209 23.777,-23.757 41.428,-23.757Zm107.706,0l99.436,0l214.359,800l-99.436,0l-214.359,-800Zm155.5,0l440.794,0c26.492,0 48,21.508 48,48l0,704c0,26.492 -21.508,48 -48,48l-226.435,0l-214.359,-800Zm-152.704,800l-110.502,0c-26.492,0 -48,-21.508 -48,-48l0,-543.536l158.502,591.536Z" style="fill:#5a8fc7;"/>
  </g>
</svg>
